{"glyphs":{":":{"x_min":0,"x_max":246,"ha":246,"o":"m 202 336 q 179 336 147 377 q 115 418 115 442 q 115 465 130 488 q 144 512 158 512 q 183 512 206 455 q 230 398 230 376 q 230 336 202 336 z m 125 -7 q 102 -7 70 33 q 39 73 39 97 q 39 121 53 144 q 67 168 82 168 q 106 168 130 112 q 153 55 153 22 q 153 11 145 2 q 137 -7 125 -7 z"},"$":{"x_min":0,"x_max":534,"ha":534,"o":"m 441 678 q 470 678 488 650 q 506 621 506 593 q 506 577 492 577 q 486 577 471 582 q 456 586 442 586 q 428 586 398 582 q 358 454 332 362 q 402 312 442 269 q 482 226 482 179 q 483 107 404 59 q 326 11 228 6 q 201 -71 183 -71 q 173 -71 167 -62 q 156 -44 169 10 q 107 23 65 68 q 23 113 23 150 q 23 187 44 187 q 55 187 76 165 q 97 143 126 120 q 156 96 189 93 q 197 125 252 314 q 186 360 150 396 q 114 431 114 462 q 114 494 122 522 q 131 551 143 563 q 206 626 353 665 q 373 727 388 754 q 403 780 422 780 q 442 779 442 744 q 442 720 428 678 z m 307 277 q 277 170 256 97 q 316 105 354 128 q 393 150 393 183 q 393 216 307 277 z m 198 480 q 198 456 276 401 q 284 429 322 563 q 269 545 234 522 q 198 499 198 480 z"},"?":{"x_min":0,"x_max":518,"ha":518,"o":"m 222 -3 q 198 -3 166 28 q 135 60 135 81 q 135 102 152 122 q 169 143 186 143 q 203 143 227 94 q 251 46 251 22 q 251 15 241 6 q 231 -3 222 -3 z m 258 634 l 260 608 q 260 596 248 590 q 235 585 226 585 q 216 585 197 608 q 178 631 178 647 q 178 702 227 745 q 276 788 341 788 q 406 788 452 747 q 497 706 497 636 q 497 595 470 550 q 442 505 408 472 q 308 373 284 314 q 259 255 250 247 q 241 239 234 239 q 209 239 209 303 q 209 344 240 391 q 272 438 310 474 q 347 509 378 552 q 410 596 410 629 q 410 662 388 682 q 367 701 336 701 q 305 701 282 682 q 258 663 258 634 z"},"<":{"x_min":0,"x_max":539,"ha":539,"o":"m 491 542 q 512 542 526 526 q 539 509 539 499 q 539 489 534 484 q 527 477 468 455 q 410 433 299 379 q 188 325 188 304 q 188 287 260 248 q 332 209 404 171 q 477 133 477 118 q 477 97 440 97 q 404 97 318 132 q 231 168 156 216 q 81 264 81 292 q 81 308 92 332 q 103 357 115 367 q 166 410 304 476 q 441 542 491 542 z"},"'":{"x_min":0,"x_max":145,"ha":145,"o":"m 84 827 q 84 846 96 846 q 109 846 132 830 q 154 813 154 803 q 154 757 134 652 q 114 548 95 553 q 85 553 73 566 q 61 579 61 586 q 61 593 72 678 q 84 763 84 827 z"},"=":{"x_min":0,"x_max":631,"ha":631,"o":"m 570 276 q 570 239 337 208 q 169 187 95 187 q 82 188 70 208 q 57 227 57 240 q 57 257 247 279 q 437 301 504 301 q 570 301 570 276 z m 597 458 q 597 441 554 431 q 510 421 346 402 q 182 383 128 383 q 115 383 102 402 q 89 422 89 436 q 90 457 244 473 q 399 489 498 489 q 597 489 597 458 z"},"a":{"x_min":0,"x_max":469,"ha":469,"o":"m 393 309 q 405 294 405 283 q 405 255 392 187 q 380 119 378 98 q 375 77 373 64 q 371 52 368 40 q 364 15 350 15 q 332 15 320 46 q 309 78 307 128 q 218 15 142 15 q 96 15 52 54 q 7 94 7 136 q 7 196 51 284 q 95 373 165 442 q 235 511 297 511 q 342 511 380 466 q 418 420 418 384 q 418 347 393 309 z m 343 335 q 343 428 306 428 q 267 428 215 372 q 163 317 127 247 q 91 177 91 136 q 91 119 105 108 q 119 98 138 98 q 185 98 244 162 q 303 225 326 316 q 329 331 343 334 z"},"L":{"x_min":0,"x_max":546,"ha":546,"o":"m 281 647 q 281 577 195 293 q 152 155 152 128 q 152 101 178 101 q 291 101 426 138 q 469 150 478 150 q 486 150 489 146 q 492 143 492 133 q 492 91 390 54 q 287 17 181 17 q 133 17 98 45 q 62 73 62 112 q 62 150 130 388 q 199 626 199 695 q 199 711 204 718 q 208 725 222 725 q 237 725 259 700 q 281 675 281 647 z"},"3":{"x_min":0,"x_max":571,"ha":571,"o":"m 34 50 q 34 59 94 74 q 153 88 224 104 q 295 121 354 158 q 414 194 414 242 q 414 268 378 284 q 342 301 298 308 q 182 325 182 348 q 182 356 185 360 q 193 374 236 399 q 279 424 324 448 q 368 472 405 511 q 442 550 442 590 q 442 637 391 637 q 350 637 287 604 q 224 572 216 572 q 207 572 184 594 q 161 615 161 626 q 161 656 242 688 q 324 720 387 720 q 450 720 494 677 q 537 634 537 578 q 537 523 474 466 q 411 408 328 369 q 419 357 473 324 q 527 291 527 236 q 527 182 464 129 q 400 76 310 46 q 219 16 126 16 q 34 16 34 50 z"},";":{"x_min":0,"x_max":306,"ha":306,"o":"m 171 8 q 171 -55 117 -125 q 63 -195 24 -195 q 4 -195 4 -180 q 4 -170 25 -145 q 88 -70 88 -19 q 88 -3 75 8 q 62 18 50 26 q 37 35 37 48 q 37 62 54 83 q 71 104 90 104 q 122 104 146 74 q 171 45 171 8 z m 213 336 q 190 336 158 377 q 127 418 127 442 q 127 465 142 488 q 156 512 170 512 q 194 512 218 455 q 242 398 242 376 q 242 354 234 345 q 225 336 213 336 z"},"J":{"x_min":0,"x_max":468,"ha":468,"o":"m 8 165 q 8 194 26 194 q 37 194 86 144 q 105 126 132 110 q 159 95 185 95 q 218 95 246 164 q 273 234 322 412 q 371 591 401 640 q 357 633 278 614 q 198 595 182 595 q 145 595 145 620 q 145 654 270 689 q 394 724 452 724 q 470 724 484 716 q 497 708 497 692 q 497 677 483 636 q 421 455 402 390 q 337 153 303 83 q 269 13 202 13 q 134 13 71 69 q 8 125 8 165 z"},"V":{"x_min":0,"x_max":532,"ha":532,"o":"m 545 718 q 561 718 577 706 q 593 695 593 678 q 593 662 574 626 q 556 590 511 510 q 466 431 434 367 q 402 303 374 242 q 345 180 328 144 q 312 107 296 74 q 264 13 243 13 q 231 13 214 32 q 197 52 187 77 q 160 144 114 387 q 69 630 69 687 q 69 718 86 718 q 107 718 129 696 q 151 675 164 642 q 170 624 194 442 q 217 261 247 147 q 311 328 412 523 q 513 718 545 718 z"},"\"":{"x_min":0,"x_max":331,"ha":331,"o":"m 261 846 q 272 846 292 830 q 313 813 313 803 q 313 750 298 652 q 283 553 263 553 q 253 553 241 566 q 229 578 229 586 q 229 593 238 677 q 247 761 247 827 q 247 846 261 846 z m 78 827 q 78 846 90 846 q 102 846 123 830 q 144 813 144 803 q 144 751 128 652 q 113 553 94 553 q 83 553 72 566 q 60 578 60 586 q 60 593 69 677 q 78 761 78 827 z"},"7":{"x_min":0,"x_max":461,"ha":461,"o":"m 444 705 q 461 692 474 664 q 486 635 486 617 q 486 599 476 576 q 467 554 449 522 q 431 491 414 462 q 396 434 372 396 q 348 357 326 320 q 304 282 252 187 q 201 92 176 52 q 152 13 139 13 q 126 13 114 32 q 102 50 102 68 q 102 101 176 226 q 250 352 324 474 q 399 595 399 616 q 399 634 366 634 q 332 634 258 623 q 185 612 165 612 q 145 612 122 640 q 99 667 99 685 q 99 695 182 707 q 264 719 344 719 q 423 719 444 705 z"},"S":{"x_min":0,"x_max":531,"ha":531,"o":"m 468 214 q 468 132 394 76 q 320 21 224 21 q 129 21 67 70 q 5 120 5 164 q 5 194 23 194 q 39 194 86 146 q 104 129 134 114 q 165 99 199 99 q 269 99 324 135 q 378 171 378 213 q 378 240 342 282 q 306 324 262 362 q 219 399 183 442 q 147 485 147 510 q 147 535 157 563 q 167 591 179 604 q 218 647 300 683 q 383 719 439 719 q 468 719 488 700 q 508 681 508 660 q 508 650 487 644 q 466 638 424 628 q 381 619 348 606 q 233 562 233 521 q 233 499 350 398 q 395 359 432 308 q 468 256 468 214 z"},"}":{"x_min":0,"x_max":538,"ha":538,"o":"m 457 356 q 457 329 419 313 q 367 284 357 142 q 353 87 344 33 q 336 -21 305 -56 q 274 -92 218 -92 q 163 -92 120 -63 q 77 -34 77 -6 q 77 22 93 22 q 109 22 120 11 q 154 -23 208 -23 q 242 -23 258 17 q 275 57 277 110 q 279 162 290 224 q 301 287 325 320 q 293 335 273 362 q 253 389 253 422 q 253 454 280 492 q 308 531 340 562 q 373 594 400 634 q 428 674 428 708 q 428 743 402 766 q 376 789 346 789 q 315 789 295 776 q 275 763 264 748 q 252 733 240 720 q 229 707 218 707 q 208 707 191 726 q 174 744 174 756 q 174 790 230 826 q 287 862 347 862 q 407 862 462 814 q 518 766 518 718 q 518 670 490 624 q 461 579 426 548 q 335 464 335 426 q 335 381 391 374 q 399 373 409 372 q 457 367 457 356 z"},"Z":{"x_min":0,"x_max":620,"ha":620,"o":"m 183 107 q 236 107 352 124 q 469 140 503 140 q 537 140 537 116 q 537 84 412 52 q 287 21 160 21 q 122 21 90 56 q 59 90 59 124 q 59 157 102 208 q 146 258 208 310 q 269 362 330 413 q 479 536 479 579 q 479 598 434 610 q 388 623 336 623 q 285 623 242 616 q 198 608 188 608 q 166 608 145 631 q 124 654 124 673 q 122 691 190 704 q 225 710 271 710 q 377 710 467 680 q 506 667 534 633 q 562 599 562 567 q 562 535 520 482 q 479 428 420 376 q 360 323 300 273 q 240 223 198 184 q 157 145 157 133 q 157 121 164 114 q 171 107 183 107 z"},"x":{"x_min":0,"x_max":427,"ha":427,"o":"m 250 237 q 256 228 268 207 q 281 186 290 172 q 298 158 312 136 q 325 115 334 102 q 343 88 351 74 q 367 48 367 38 q 367 28 360 22 q 353 15 343 15 q 298 15 199 176 q 68 15 40 15 q 24 15 7 32 q -10 48 -10 62 q -10 67 12 89 q 109 186 157 247 q 111 329 79 399 q 47 469 47 484 q 47 498 48 502 q 50 511 70 511 q 90 511 119 499 q 148 487 148 470 q 148 428 207 314 q 288 423 328 467 q 367 511 386 511 q 405 511 424 495 q 442 479 442 468 q 442 456 435 448 q 428 441 412 428 q 397 415 384 400 q 370 386 349 360 q 328 335 298 298 q 269 260 250 237 z"},")":{"x_min":0,"x_max":504,"ha":504,"o":"m 426 571 q 426 475 398 382 q 371 290 328 220 q 285 151 234 92 q 182 32 133 -6 q 29 -87 -9 -87 q -32 -87 -32 -70 q -32 -52 62 30 q 155 110 238 232 q 279 292 306 372 q 333 453 333 524 q 333 596 316 641 q 300 686 276 711 q 253 736 229 754 q 205 772 188 788 q 172 803 172 818 q 172 861 228 861 q 295 861 360 775 q 426 689 426 571 z"},"&":{"x_min":0,"x_max":704,"ha":704,"o":"m 569 91 q 618 91 636 86 q 654 81 654 67 q 654 20 558 20 q 461 20 367 107 q 207 9 130 9 q 91 9 53 46 q 15 84 15 126 q 15 167 191 310 q 196 315 199 317 q 202 319 206 323 q 211 327 215 330 q 179 418 179 494 q 179 569 234 625 q 289 681 373 681 q 437 681 464 642 q 492 604 492 557 q 492 468 309 310 q 335 254 371 207 q 412 235 478 283 q 607 376 620 376 q 651 376 651 343 q 651 324 585 266 q 519 208 429 147 q 496 91 569 91 z m 282 386 q 403 493 403 549 q 403 573 390 589 q 378 605 353 605 q 316 605 292 570 q 267 535 267 486 q 267 438 282 386 z m 131 87 q 183 87 310 168 q 279 206 249 259 q 127 157 115 140 q 103 122 103 112 q 103 101 111 94 q 119 87 131 87 z"},"_":{"x_min":0,"x_max":608,"ha":608,"o":"m 553 26 q 553 9 499 2 q 403 -9 326 -10 q 250 -10 178 -16 q 105 -21 88 -21 q 70 -21 57 -4 q 44 14 44 32 q 44 49 123 58 q 202 67 323 67 q 444 67 509 55 q 553 47 553 26 z"},"v":{"x_min":0,"x_max":422,"ha":422,"o":"m 376 511 q 393 511 409 498 q 425 486 425 471 q 425 444 352 284 q 280 124 250 68 q 219 13 196 13 q 183 13 164 32 q 145 51 136 73 q 109 136 78 276 q 47 416 47 481 q 47 511 65 511 q 87 511 110 492 q 133 474 142 446 q 145 430 150 366 q 164 208 198 123 q 225 181 267 288 q 309 394 336 452 q 362 511 376 511 z"},"O":{"x_min":0,"x_max":613,"ha":613,"o":"m 145 220 q 145 165 169 130 q 193 96 225 96 q 275 96 340 155 q 406 214 453 300 q 500 387 500 464 q 500 541 470 589 q 441 637 401 637 q 361 637 301 575 q 241 513 193 412 q 145 312 145 220 z m 219 17 q 153 17 104 82 q 54 147 54 214 q 54 305 88 399 q 121 493 172 563 q 222 633 283 678 q 344 722 396 722 q 480 722 536 646 q 592 569 592 473 q 592 377 539 272 q 486 166 398 92 q 309 17 219 17 z"},"(":{"x_min":0,"x_max":485,"ha":485,"o":"m 374 -22 q 445 -56 445 -78 q 445 -99 416 -99 q 368 -99 312 -74 q 256 -50 203 -6 q 150 38 115 112 q 80 185 80 280 q 80 374 117 472 q 154 571 208 642 q 262 712 322 766 q 382 821 430 848 q 479 875 500 875 q 520 875 536 860 q 551 846 551 832 q 551 817 522 793 q 494 769 452 739 q 410 709 360 661 q 310 613 268 559 q 226 505 198 426 q 169 347 169 274 q 169 200 190 150 q 210 101 240 71 q 271 41 307 16 q 343 -8 374 -22 z"},"C":{"x_min":0,"x_max":599,"ha":599,"o":"m 470 718 q 496 718 524 685 q 551 652 551 630 q 551 609 544 609 q 536 609 515 616 q 494 624 477 624 q 438 624 382 584 q 327 544 278 485 q 228 426 193 350 q 158 275 158 220 q 158 165 186 140 q 215 114 261 114 q 307 114 356 128 q 405 141 436 158 q 516 201 524 201 q 541 201 541 178 q 541 156 495 118 q 449 81 381 51 q 313 21 259 21 q 189 21 127 82 q 65 142 65 215 q 65 309 126 428 q 188 546 284 632 q 381 718 470 718 z"},"W":{"x_min":0,"x_max":782,"ha":782,"o":"m 498 719 q 615 719 675 626 q 735 533 735 392 q 735 251 666 136 q 596 20 505 20 q 441 20 411 92 q 381 164 372 297 q 330 238 276 163 q 172 19 130 19 q 114 19 93 45 q 72 71 72 110 q 72 150 99 358 q 126 565 126 681 q 126 718 148 718 q 170 718 200 692 q 229 666 229 644 q 229 623 196 433 q 162 243 154 135 q 215 238 292 326 q 368 413 401 413 q 435 413 448 263 q 453 207 468 160 q 482 113 507 113 q 563 113 604 204 q 646 294 646 404 q 646 526 592 592 q 564 627 530 627 q 497 627 474 650 q 450 673 450 690 q 450 719 498 719 z"},"A":{"x_min":0,"x_max":608,"ha":608,"o":"m 564 363 q 564 344 476 319 q 484 215 484 142 q 484 16 452 16 q 435 16 425 37 q 415 58 409 110 q 402 206 394 298 q 349 286 312 276 q 275 267 200 246 q 112 16 96 16 q 80 16 62 36 q 43 55 43 77 q 43 87 100 219 l 93 219 q 73 219 58 232 q 42 245 42 264 q 42 284 141 316 q 157 352 167 381 q 190 438 231 537 q 272 636 283 664 q 294 691 322 710 q 349 730 375 730 q 406 730 430 631 q 455 532 470 386 q 498 389 519 389 q 564 389 564 363 z m 237 342 q 308 361 387 374 q 369 545 352 631 q 307 528 237 342 z"},"f":{"x_min":0,"x_max":376,"ha":376,"o":"m 103 13 q 90 13 75 32 q 60 51 60 63 q 60 75 70 110 q 120 290 138 367 q 95 357 79 357 q 63 357 47 371 q 31 385 31 402 q 31 419 76 432 q 134 446 156 450 q 166 498 171 524 q 195 662 236 723 q 277 784 347 784 q 397 784 429 744 q 461 705 461 652 q 461 598 433 598 q 409 598 394 652 q 389 672 377 689 q 365 706 348 706 q 331 706 317 690 q 303 675 292 646 q 263 565 252 498 l 244 463 q 281 468 318 468 q 354 468 370 460 q 387 452 387 440 q 387 421 354 411 q 321 401 225 385 q 154 97 128 42 q 114 13 103 13 z"},"Q":{"x_min":0,"x_max":641,"ha":641,"o":"m 429 98 q 443 59 464 6 q 485 -46 495 -74 q 505 -101 505 -116 q 505 -139 480 -139 q 435 -139 362 52 q 301 20 237 20 q 173 20 115 80 q 57 140 57 214 q 57 307 90 401 q 123 495 172 564 q 222 632 282 676 q 343 719 396 719 q 480 719 544 643 q 607 567 607 472 q 607 376 557 272 q 507 167 429 98 z m 403 636 q 387 636 368 628 q 345 596 345 531 q 345 368 398 191 q 449 251 482 324 q 516 398 516 469 q 516 540 480 588 q 444 636 403 636 z m 334 131 q 263 353 263 477 q 263 516 270 545 q 216 479 180 391 q 145 303 145 221 q 145 166 178 131 q 210 96 248 96 q 286 96 334 131 z"},"w":{"x_min":0,"x_max":673,"ha":673,"o":"m 433 405 l 426 217 q 426 139 433 104 q 476 149 508 210 q 539 270 554 322 q 570 374 582 420 q 593 465 603 492 q 613 519 626 519 q 645 519 660 504 q 675 488 675 468 q 675 417 629 300 q 590 192 527 102 q 464 13 429 13 q 394 13 376 52 q 359 91 357 202 q 355 312 360 393 q 291 205 238 109 q 185 13 154 13 q 140 13 124 26 q 109 39 100 60 q 78 113 62 262 q 47 412 47 476 q 47 517 72 517 q 94 517 112 492 q 131 467 134 442 q 137 418 140 306 q 142 195 158 108 q 199 179 240 286 q 282 393 308 454 q 335 515 357 515 q 390 515 412 484 q 433 454 433 405 z"},"-":{"x_min":0,"x_max":459,"ha":459,"o":"m 422 328 q 422 312 390 302 q 357 292 232 267 q 108 242 96 242 q 85 242 69 259 q 53 276 53 290 q 53 312 166 332 q 279 353 362 353 q 422 353 422 328 z"},"E":{"x_min":0,"x_max":585,"ha":585,"o":"m 208 333 q 154 162 154 126 q 154 114 162 106 q 169 99 181 99 q 296 99 435 136 q 480 148 487 148 q 502 148 502 127 q 502 91 392 53 q 281 15 178 15 q 132 15 98 42 q 63 69 63 110 q 63 151 92 250 q 122 349 152 461 q 182 573 182 650 q 182 661 186 673 q 203 710 404 710 q 605 710 605 681 q 605 661 562 654 q 526 647 466 642 q 407 636 383 634 q 359 631 267 615 l 267 612 q 267 544 230 407 q 236 406 270 406 q 305 406 363 411 q 421 416 450 416 q 480 416 480 402 q 480 367 398 350 q 316 333 208 333 z"},"s":{"x_min":0,"x_max":426,"ha":426,"o":"m 317 511 q 351 511 381 474 q 411 436 411 408 q 411 391 395 391 q 384 391 361 408 q 338 426 314 426 q 290 426 238 398 q 187 370 187 339 q 187 316 279 260 q 314 238 342 204 q 371 169 371 130 q 371 90 316 52 q 262 15 190 15 q 117 15 62 50 q 6 85 6 116 q 6 129 12 136 q 19 144 29 144 q 39 144 57 131 q 111 92 170 92 q 228 92 254 106 q 280 119 280 142 q 280 164 251 190 q 222 215 188 235 q 153 255 124 284 q 95 313 95 343 q 95 396 178 454 q 262 511 317 511 z"},">":{"x_min":0,"x_max":561,"ha":561,"o":"m 132 527 q 132 543 155 543 q 223 542 319 490 q 415 438 474 380 q 506 348 506 321 q 506 283 349 197 q 337 190 330 186 q 171 96 116 96 q 86 96 86 116 q 86 137 166 184 q 247 232 328 276 q 408 319 408 330 q 408 351 327 397 q 246 443 194 458 q 175 464 154 490 q 132 515 132 527 z"},"l":{"x_min":0,"x_max":245,"ha":245,"o":"m 228 707 q 228 519 150 219 q 100 15 80 15 q 66 15 48 37 q 29 59 29 71 q 29 83 58 195 q 87 307 116 470 q 145 634 145 765 q 145 779 149 785 q 153 791 166 791 q 179 791 204 762 q 228 734 228 707 z"},"8":{"x_min":0,"x_max":602,"ha":602,"o":"m 405 367 q 498 279 498 217 q 498 168 454 122 q 411 75 350 48 q 288 22 238 22 q 188 22 140 58 q 91 95 91 141 q 91 187 140 244 q 189 300 276 371 q 131 483 106 520 q 92 540 92 558 q 92 575 98 592 q 103 610 112 610 q 121 610 137 594 q 153 577 166 564 q 180 551 210 526 q 241 501 280 471 q 319 441 340 423 q 399 470 429 496 q 459 522 486 555 q 514 588 514 610 q 514 648 464 648 q 413 648 348 624 q 283 599 269 599 q 255 599 234 614 q 212 629 212 643 q 212 673 289 701 q 366 729 444 729 q 522 729 562 697 q 602 665 602 612 q 602 558 550 500 q 498 441 405 367 z m 408 230 q 408 258 342 317 q 288 274 259 250 q 230 225 205 195 q 180 165 180 146 q 180 128 198 113 q 215 98 236 98 q 291 98 350 138 q 408 179 408 230 z"},"\\":{"x_min":0,"x_max":600,"ha":600,"o":"m 521 -20 q 521 -34 504 -56 q 486 -77 474 -77 q 463 -77 430 -4 q 396 69 335 217 q 274 365 224 468 q 175 572 150 632 q 124 691 124 714 q 124 736 146 766 q 169 796 181 796 q 192 796 198 784 q 202 776 205 767 q 521 35 521 -20 z"},"e":{"x_min":0,"x_max":450,"ha":450,"o":"m 111 241 q 97 197 97 162 q 97 128 118 109 q 140 90 190 90 q 239 90 292 108 q 344 125 349 125 q 375 125 375 105 q 375 78 314 46 q 253 15 195 15 q 117 15 68 62 q 19 108 19 179 q 19 250 57 328 q 95 405 155 458 q 215 511 274 511 q 333 511 382 455 q 430 399 430 346 q 430 292 372 258 q 315 225 242 225 q 170 225 111 241 z m 279 432 q 242 432 202 394 q 162 355 134 298 q 174 289 225 289 q 276 289 314 306 q 352 322 352 349 q 352 376 328 404 q 303 432 279 432 z"},"b":{"x_min":0,"x_max":525,"ha":525,"o":"m 74 15 q 60 15 41 36 q 22 58 22 77 q 22 96 54 207 q 85 318 116 474 q 148 631 148 761 q 148 791 170 791 q 186 791 209 762 q 232 732 232 704 q 232 581 178 353 q 297 514 394 514 q 441 514 474 468 q 506 422 506 358 q 506 295 470 213 q 433 131 371 72 q 309 14 241 14 q 173 14 107 83 l 106 82 q 84 15 74 15 z m 233 92 q 298 92 360 180 q 423 269 423 367 q 423 426 387 426 q 329 426 258 345 q 186 264 134 152 q 181 92 233 92 z"},"%":{"x_min":0,"x_max":890,"ha":890,"o":"m 697 403 q 745 403 778 352 q 810 302 810 240 q 810 154 749 82 q 688 10 618 10 q 576 10 544 54 q 513 97 513 150 q 513 243 572 323 q 630 403 697 403 z m 633 89 q 662 89 697 134 q 732 180 732 226 q 732 273 720 299 q 707 325 691 325 q 662 325 627 270 q 592 214 592 157 q 592 129 603 109 q 614 89 633 89 z m 364 286 q 446 402 608 633 q 512 576 422 583 q 411 583 387 589 q 394 558 394 534 q 394 448 333 376 q 272 303 202 303 q 159 303 128 346 q 96 390 96 443 q 96 536 154 616 q 213 696 281 696 q 304 696 325 684 q 367 658 408 655 q 448 652 513 678 q 578 704 628 732 q 679 760 690 760 q 702 760 718 733 q 734 706 732 684 q 729 662 696 613 q 664 564 589 464 q 514 363 407 211 q 300 59 270 22 q 240 -15 230 -14 q 219 -12 208 4 q 198 19 199 31 q 200 43 219 74 q 238 105 280 166 q 323 228 364 286 z m 216 382 q 245 382 280 428 q 316 473 316 520 q 316 566 304 592 q 291 618 275 618 q 246 618 211 562 q 176 507 176 450 q 176 423 187 402 q 198 382 216 382 z"},"m":{"x_min":0,"x_max":796,"ha":796,"o":"m 678 511 q 708 511 732 470 q 755 428 755 376 q 755 323 736 239 q 718 155 687 85 q 656 15 626 15 q 605 15 605 42 q 605 70 640 178 q 674 285 674 348 q 674 412 654 412 q 629 412 596 368 q 564 324 527 262 q 490 200 487 196 q 484 191 480 183 q 475 175 470 166 q 464 157 442 112 q 419 67 402 42 q 385 16 372 16 q 360 16 345 32 q 330 48 330 62 q 330 76 348 120 q 400 250 400 362 q 400 383 391 398 q 382 412 371 412 q 360 412 348 402 q 336 393 318 368 q 300 344 286 322 q 272 300 244 254 q 215 207 200 184 q 186 162 167 132 q 148 103 138 87 q 127 71 114 52 q 87 15 74 15 q 62 15 42 38 q 22 60 22 72 q 22 83 26 100 q 30 117 34 133 q 39 149 48 180 q 58 212 70 254 q 83 297 90 372 q 96 446 99 480 q 102 515 116 515 q 138 515 160 492 q 181 469 181 446 q 181 358 115 156 q 227 366 256 405 q 285 444 306 468 q 345 511 385 511 q 409 511 442 470 q 476 428 476 386 q 476 344 464 282 q 582 511 678 511 z"},"#":{"x_min":0,"x_max":656,"ha":656,"o":"m 146 147 q 97 140 87 140 q 77 140 66 157 q 54 174 54 189 q 54 214 168 233 q 210 402 222 458 q 159 447 145 447 q 131 447 120 464 q 109 481 109 496 q 109 524 240 543 q 260 646 260 680 q 260 715 264 722 q 267 728 281 728 q 295 728 321 704 q 347 680 347 651 q 347 622 333 555 q 422 563 466 565 q 482 650 482 682 q 482 714 486 721 q 489 728 504 728 q 518 728 544 704 q 569 680 569 653 q 569 626 558 569 q 576 570 601 570 q 664 570 664 541 q 664 516 543 500 q 522 410 483 262 q 509 263 546 263 q 584 263 596 256 q 609 249 609 234 q 609 219 576 210 q 543 200 463 190 l 447 129 q 411 -8 383 -8 q 370 -8 360 10 q 351 27 351 47 q 348 61 377 179 q 340 174 306 170 q 255 164 232 160 q 195 20 178 -1 q 160 -19 141 12 q 129 31 129 57 q 127 63 146 147 z m 451 488 q 368 478 315 471 q 302 416 256 245 q 321 252 397 257 q 434 406 451 488 z"},",":{"x_min":0,"x_max":228,"ha":228,"o":"m 174 26 q 174 -37 120 -106 q 66 -176 27 -176 q 7 -176 7 -162 q 7 -151 28 -126 q 91 -51 91 -1 q 91 15 78 26 q 66 36 53 45 q 40 54 40 68 q 40 81 57 102 q 74 122 93 122 q 125 122 150 92 q 174 63 174 26 z"},"n":{"x_min":0,"x_max":533,"ha":533,"o":"m 492 383 q 492 311 459 207 q 399 15 351 15 q 329 15 329 45 q 329 66 350 130 q 372 195 390 258 q 409 320 409 352 q 409 383 400 398 q 390 413 380 413 q 371 413 361 407 q 351 401 338 387 q 326 373 315 360 q 304 346 288 321 q 271 296 260 278 q 249 261 228 228 q 207 195 196 178 q 185 161 167 132 q 149 103 138 87 q 128 71 115 52 q 90 15 76 15 q 61 15 42 38 q 23 60 23 77 q 23 82 30 104 q 49 162 72 248 q 95 333 97 442 q 100 515 118 515 q 140 515 162 492 q 184 469 184 442 q 184 414 168 336 q 151 257 129 189 q 225 352 286 432 q 346 511 384 511 q 423 511 458 470 q 492 429 492 383 z"},"h":{"x_min":0,"x_max":536,"ha":536,"o":"m 149 752 q 149 791 173 791 q 192 791 214 761 q 235 731 235 703 q 235 638 202 482 q 170 325 118 169 q 218 350 286 430 q 353 511 401 511 q 427 511 462 466 q 496 421 496 376 q 496 331 471 241 q 409 15 354 15 q 332 15 332 45 q 332 75 356 146 q 409 301 409 355 q 409 373 400 385 q 391 397 378 397 q 365 397 346 383 q 327 369 300 334 q 266 289 230 233 q 193 177 186 166 q 178 154 160 124 q 141 94 132 80 q 123 65 110 48 q 87 15 75 15 q 63 15 43 38 q 23 60 23 76 q 23 91 34 134 q 84 326 97 397 q 149 657 149 752 z"},"z":{"x_min":0,"x_max":440,"ha":440,"o":"m 344 491 q 366 482 384 454 q 403 427 403 409 q 403 371 356 322 q 310 273 255 235 q 200 197 154 162 q 107 127 107 115 q 107 98 133 98 q 190 98 273 106 q 356 114 372 114 q 411 114 411 91 q 411 59 311 37 q 211 15 118 15 q 75 15 39 48 q 3 80 3 107 q 3 134 54 180 q 104 225 164 266 q 325 378 325 406 q 325 425 223 425 q 198 425 161 420 q 124 414 108 414 q 91 414 72 435 q 54 456 54 471 q 54 490 98 500 q 142 511 218 511 q 295 511 344 491 z"},"B":{"x_min":0,"x_max":637,"ha":637,"o":"m 575 254 q 575 195 514 140 q 453 84 356 50 q 259 17 158 17 q 99 17 52 50 q 6 83 6 112 q 6 140 23 140 q 27 140 62 118 q 98 97 137 96 q 123 103 110 122 q 98 141 98 158 q 98 175 122 253 q 196 488 198 614 l 190 614 q 172 614 153 636 q 134 659 134 673 q 134 690 176 702 q 219 715 279 715 q 419 715 495 677 q 571 639 571 567 q 571 507 520 458 q 470 409 373 379 l 382 378 q 466 373 520 337 q 575 301 575 254 z m 251 620 q 279 590 279 562 q 279 535 244 397 q 268 412 319 432 q 370 451 400 466 q 429 481 442 492 q 456 504 468 523 q 481 542 481 562 q 481 595 448 614 q 414 632 366 632 q 319 632 251 620 z m 488 258 q 488 288 418 308 q 349 329 280 329 q 253 329 233 357 q 172 116 153 96 q 224 98 302 122 q 380 145 434 183 q 488 221 488 258 z"},"K":{"x_min":0,"x_max":591,"ha":591,"o":"m 105 20 q 91 20 72 44 q 54 67 54 92 q 54 118 119 370 q 184 622 184 686 q 184 704 188 711 q 192 718 206 718 q 221 718 241 687 q 261 656 261 616 q 261 576 209 379 q 300 503 401 608 q 502 712 529 712 q 549 712 566 699 q 584 686 584 674 q 584 661 536 618 q 489 574 409 496 q 329 418 272 340 q 272 299 294 251 q 329 171 438 118 q 485 95 512 79 q 538 63 538 46 q 538 20 499 20 q 460 20 417 36 q 374 53 331 83 q 288 113 252 162 q 217 212 204 271 q 173 216 146 126 q 113 20 106 20 z"},"R":{"x_min":0,"x_max":584,"ha":584,"o":"m 100 16 q 85 16 66 38 q 47 60 47 82 q 47 105 102 299 q 157 493 165 594 q 152 602 142 619 q 132 636 132 649 q 132 672 200 696 q 268 721 350 721 q 433 721 494 682 q 554 642 554 570 q 554 521 526 478 q 499 436 460 409 q 420 382 381 361 q 342 340 314 326 q 287 313 287 307 q 287 285 322 250 q 356 215 370 202 q 384 189 407 168 q 430 146 450 129 q 471 112 484 101 q 496 90 509 78 q 534 55 534 41 q 534 17 501 17 q 441 17 330 122 q 219 226 194 299 q 147 143 140 118 q 133 94 124 68 q 108 16 100 16 z m 251 567 q 251 502 209 352 q 226 365 274 390 q 322 416 360 438 q 399 459 431 495 q 463 531 463 570 q 463 632 355 632 q 306 632 241 607 q 251 585 251 567 z"},"T":{"x_min":0,"x_max":535,"ha":535,"o":"m 284 632 l 113 624 q 97 624 80 645 q 63 666 63 686 q 63 704 120 709 q 178 714 373 714 q 474 714 540 692 q 605 670 605 643 q 605 624 572 624 q 539 624 480 628 q 421 632 367 633 q 370 623 370 611 q 370 574 292 267 q 284 235 268 167 q 252 99 244 72 q 230 19 219 19 q 204 19 186 42 q 167 64 167 87 q 167 110 221 324 q 275 537 284 632 z"},"P":{"x_min":0,"x_max":543,"ha":543,"o":"m 559 553 q 559 445 456 370 q 352 295 182 262 q 109 15 95 15 q 81 15 62 38 q 43 60 43 82 q 43 105 72 202 q 162 501 166 619 q 142 641 142 659 q 142 684 210 707 q 278 730 340 730 q 436 730 498 681 q 559 632 559 553 z m 471 547 q 471 591 438 620 q 404 648 357 648 q 310 648 243 618 q 253 596 253 577 q 253 521 204 340 q 324 372 398 428 q 471 485 471 547 z"},"|":{"x_min":0,"x_max":368,"ha":368,"o":"m 240 798 q 240 814 244 821 q 249 828 264 828 q 279 828 303 798 q 327 769 327 737 q 327 705 246 363 q 240 338 208 192 q 137 -135 122 -135 q 108 -135 88 -112 q 67 -90 67 -72 q 67 -53 154 344 q 240 742 240 798 z"},"t":{"x_min":0,"x_max":387,"ha":387,"o":"m 143 115 q 143 96 165 96 q 203 96 258 118 q 312 139 318 139 q 336 139 336 120 q 336 91 276 53 q 217 15 168 15 q 120 15 88 42 q 56 68 56 96 q 56 124 68 168 q 80 211 102 282 q 125 354 138 401 q 91 390 75 390 q 59 390 44 406 q 28 423 28 438 q 28 462 158 484 q 176 567 176 631 q 176 661 196 661 q 213 661 238 640 q 263 618 263 591 q 263 564 246 496 q 303 501 337 501 q 397 501 397 475 q 397 460 364 450 q 332 440 228 419 q 207 340 175 238 q 143 137 143 115 z"},"M":{"x_min":0,"x_max":789,"ha":789,"o":"m 283 643 q 287 607 321 516 q 355 424 399 330 q 455 396 540 506 q 625 615 666 661 q 707 707 725 707 q 743 707 763 687 q 783 667 783 649 q 783 631 779 608 q 775 585 766 548 q 756 510 748 482 q 741 455 724 397 q 707 339 698 304 q 689 270 677 220 q 665 171 658 140 q 650 108 642 78 q 627 20 614 20 q 600 20 587 44 q 574 68 574 108 q 574 149 608 294 q 643 439 683 548 q 499 318 456 273 q 414 228 386 228 q 359 228 335 259 q 299 311 238 505 q 221 400 200 326 q 180 251 174 226 q 167 202 162 186 q 158 170 152 148 q 146 127 142 113 q 137 99 132 82 q 127 66 124 56 q 120 46 116 37 q 108 20 104 20 q 92 20 74 46 q 56 72 56 96 q 56 120 120 372 q 185 624 185 688 q 185 705 190 712 q 194 718 206 718 q 219 718 250 691 q 281 664 283 643 z"},"g":{"x_min":0,"x_max":475,"ha":475,"o":"m 427 285 q 427 245 392 194 q 365 133 334 18 q 303 -96 282 -145 q 240 -247 153 -247 q 82 -247 34 -208 q -15 -170 -15 -132 q -15 -116 -6 -100 q 4 -84 14 -84 q 25 -84 38 -99 q 51 -114 62 -132 q 74 -149 98 -164 q 121 -179 143 -179 q 165 -179 176 -172 q 187 -166 197 -152 q 207 -137 214 -122 q 221 -108 230 -82 q 238 -55 243 -36 q 248 -17 257 18 q 266 52 272 73 q 194 15 145 15 q 96 15 60 54 q 24 94 24 146 q 24 199 64 286 q 103 373 170 442 q 237 511 301 511 q 342 511 370 480 q 416 429 416 335 q 416 323 415 318 q 427 301 427 285 z m 105 136 q 105 119 116 108 q 127 98 144 98 q 194 98 262 158 q 330 217 358 296 q 354 309 351 336 q 348 363 345 379 q 342 395 332 412 q 322 428 306 428 q 267 428 218 372 q 169 316 137 247 q 105 178 105 136 z"},"j":{"x_min":0,"x_max":254,"ha":254,"o":"m -149 -121 q -106 -176 -78 -176 q -50 -176 -31 -146 q -12 -116 6 -52 q 24 13 40 81 q 56 149 82 261 q 107 373 131 462 q 146 511 160 511 q 177 511 195 490 q 213 468 213 443 q 213 420 182 304 q 151 187 127 94 q 103 1 80 -88 q 37 -245 -76 -245 q -126 -245 -174 -203 q -221 -161 -221 -131 q -221 -118 -210 -100 q -200 -83 -191 -83 q -180 -83 -168 -98 q -156 -112 -149 -121 z m 283 601 q 283 591 274 583 q 265 575 256 575 q 232 575 202 604 q 172 633 172 653 q 172 673 188 691 q 204 709 221 709 q 238 709 260 668 q 283 628 283 601 z"},"i":{"x_min":0,"x_max":238,"ha":238,"o":"m 270 601 q 270 591 261 583 q 252 575 242 575 q 218 575 188 604 q 159 633 159 653 q 159 673 175 691 q 191 709 208 709 q 224 709 247 668 q 270 628 270 601 z m 154 511 q 173 511 190 488 q 207 465 207 443 q 207 421 178 312 q 149 202 105 66 q 88 16 62 16 q 48 16 38 28 q 28 39 28 54 q 28 68 36 100 q 43 131 58 184 q 72 236 80 269 q 89 302 98 344 q 107 385 112 410 q 118 436 125 462 q 139 511 154 511 z"},"y":{"x_min":0,"x_max":469,"ha":469,"o":"m 475 435 q 475 415 434 299 q 393 183 378 142 q 364 100 340 32 q 315 -37 292 -102 q 242 -245 142 -245 q 85 -245 33 -210 q -19 -176 -19 -139 q -19 -125 -6 -108 q 6 -91 15 -91 q 24 -91 44 -113 q 102 -179 143 -179 q 174 -179 199 -124 q 224 -70 246 -2 q 269 67 272 74 q 274 81 278 92 q 281 103 284 112 q 213 15 144 15 q 102 15 66 54 q 31 93 31 146 q 31 199 57 289 q 83 379 118 445 q 153 511 175 511 q 193 511 208 494 q 224 478 224 461 q 224 444 198 390 q 117 224 117 132 q 117 116 127 106 q 137 95 151 95 q 187 95 237 159 q 287 223 329 311 q 364 385 402 500 q 406 511 422 511 q 438 511 456 488 q 475 464 475 435 z"},"@":{"x_min":0,"x_max":965,"ha":965,"o":"m 607 730 q 747 730 830 641 q 913 552 913 413 q 913 348 886 284 q 860 220 820 174 q 779 127 730 98 q 681 70 644 70 q 607 70 584 90 q 562 111 555 143 q 466 49 404 49 q 359 49 315 88 q 271 126 271 168 q 271 210 298 272 q 324 333 364 388 q 403 444 455 483 q 507 522 552 522 q 597 522 634 478 q 671 435 671 400 q 671 365 650 334 q 665 317 665 304 q 665 291 648 250 q 632 208 632 190 q 632 172 640 160 q 648 149 664 149 q 681 149 708 170 q 736 190 762 224 q 788 257 807 306 q 826 356 826 407 q 826 515 772 582 q 717 650 614 650 q 511 650 420 600 q 330 551 268 474 q 207 398 170 306 q 134 214 134 122 q 134 31 188 -28 q 243 -87 341 -87 q 455 -87 557 -51 q 591 -39 600 -39 q 613 -39 613 -53 q 613 -94 520 -130 q 427 -165 342 -165 q 214 -165 128 -80 q 43 6 43 127 q 43 225 84 330 q 125 435 196 524 q 268 614 376 672 q 485 730 607 730 z m 559 446 q 522 446 472 392 q 421 339 386 272 q 350 205 350 166 q 350 148 365 136 q 380 123 398 123 q 443 123 506 188 q 568 252 588 339 q 591 353 605 354 l 605 361 q 602 397 590 422 q 578 446 559 446 z"},".":{"x_min":0,"x_max":237,"ha":237,"o":"m 145 -6 q 120 -6 88 26 q 56 59 56 80 q 56 102 74 124 q 91 145 110 145 q 128 145 152 96 q 177 47 177 22 q 177 14 166 4 q 155 -6 145 -6 z"},"p":{"x_min":0,"x_max":478,"ha":478,"o":"m 358 514 q 401 514 432 459 q 464 404 464 346 q 464 287 430 228 q 396 170 346 124 q 296 78 236 48 q 175 17 124 17 q 104 17 86 22 q 82 5 72 -39 q 62 -83 55 -112 q 48 -141 39 -174 q 21 -242 7 -242 q -7 -242 -22 -220 q -38 -199 -38 -182 q -38 -165 -6 -36 q 90 353 90 488 q 90 518 112 518 q 130 518 156 492 q 181 465 181 433 q 181 417 177 398 q 266 514 358 514 z m 114 95 q 167 95 228 131 q 290 167 334 226 q 377 286 377 345 q 377 428 338 428 q 299 428 232 361 q 166 294 127 187 l 104 95 z"},"X":{"x_min":0,"x_max":624,"ha":624,"o":"m 574 715 q 586 715 606 694 q 626 673 626 662 q 626 652 620 646 q 613 640 599 630 q 585 620 575 610 q 538 574 358 342 q 385 298 436 222 q 487 145 510 106 q 532 68 532 52 q 532 36 524 28 q 516 19 506 19 q 481 19 424 90 q 366 162 301 269 q 249 200 234 180 q 218 160 201 138 q 184 115 174 102 q 163 90 150 74 q 136 59 127 50 q 118 42 108 34 q 90 20 74 20 q 59 20 42 33 q 25 46 25 54 q 25 62 26 64 q 27 67 30 70 q 32 74 34 76 q 35 78 49 92 q 130 180 257 346 q 122 589 122 692 q 122 719 136 719 q 165 719 194 704 q 222 690 222 671 q 222 579 312 420 q 453 615 500 665 q 546 715 574 715 z"},"*":{"x_min":0,"x_max":357,"ha":357,"o":"m 381 726 q 381 720 343 698 q 305 677 271 663 q 284 652 308 638 q 331 625 346 616 q 361 607 361 602 q 361 596 354 590 q 346 584 337 584 q 328 584 302 600 q 276 616 253 636 q 249 604 238 566 q 228 529 220 529 q 212 529 204 536 q 197 544 197 550 q 197 556 202 572 q 206 587 212 607 q 219 627 221 638 q 205 623 170 603 q 134 583 126 583 q 117 583 109 590 q 101 598 101 606 q 101 611 119 619 q 137 627 166 640 q 196 653 213 664 q 184 675 146 704 q 109 734 109 746 q 109 758 119 758 q 167 758 176 739 q 180 731 198 712 q 215 693 227 687 l 227 778 q 227 793 240 793 q 250 793 264 780 q 279 767 279 758 q 279 750 261 686 q 277 696 298 714 q 319 731 332 742 q 345 752 352 752 q 360 752 370 744 q 381 735 381 726 z"},"Y":{"x_min":0,"x_max":575,"ha":575,"o":"m 327 373 q 345 373 392 458 q 440 544 490 630 q 539 716 560 716 q 581 716 594 701 q 607 686 607 665 q 607 644 569 581 q 531 518 467 414 q 403 311 339 190 q 275 69 251 39 q 227 9 212 9 q 190 9 190 45 q 190 73 218 130 q 227 147 232 158 q 237 170 248 191 q 259 212 265 224 q 271 235 284 260 q 296 284 302 295 q 243 310 194 370 q 144 429 118 502 q 92 576 92 646 q 92 716 132 716 q 148 716 158 685 q 167 654 181 596 q 195 538 218 490 q 241 441 273 407 q 305 373 327 373 z"},"c":{"x_min":0,"x_max":445,"ha":445,"o":"m 312 511 q 353 511 384 474 q 415 437 415 409 q 415 401 410 396 q 405 390 396 390 q 386 390 362 408 q 338 426 319 426 q 265 426 193 331 q 121 236 121 165 q 121 134 140 116 q 160 98 204 98 q 247 98 284 108 q 320 119 340 130 q 360 140 371 140 q 390 140 390 121 q 390 92 320 54 q 251 15 192 15 q 134 15 83 60 q 32 106 32 168 q 32 231 74 313 q 116 395 182 453 q 249 511 312 511 z"},"!":{"x_min":0,"x_max":371,"ha":371,"o":"m 184 22 q 184 15 174 6 q 164 -3 155 -3 q 130 -3 99 28 q 68 60 68 80 q 68 101 85 122 q 102 143 119 143 q 136 143 160 94 q 184 46 184 22 z m 214 810 q 233 810 266 786 q 299 762 299 748 q 299 663 256 449 q 212 235 186 235 q 170 235 156 252 q 142 268 142 286 q 141 292 154 358 q 168 424 183 544 q 198 663 198 784 q 198 810 214 810 z"},"/":{"x_min":0,"x_max":354,"ha":354,"o":"m 15 -20 q 15 35 331 767 q 332 770 334 774 q 336 779 337 782 q 338 784 340 787 q 341 790 342 791 q 344 792 346 794 q 349 796 358 796 q 367 796 390 766 q 412 736 412 714 q 412 691 386 632 q 361 572 312 468 q 262 365 201 217 q 140 69 106 -4 q 73 -77 62 -77 q 50 -77 32 -56 q 15 -34 15 -20 z"},"[":{"x_min":0,"x_max":453,"ha":453,"o":"m 426 802 q 550 802 550 768 q 550 755 540 750 q 530 745 522 742 q 514 740 500 738 q 485 736 472 734 q 459 733 437 730 q 384 723 354 716 q 355 713 355 708 q 355 630 235 263 q 171 63 171 40 q 171 18 196 18 q 221 18 278 24 q 334 31 343 31 q 362 31 362 13 q 362 -13 298 -39 q 235 -65 190 -65 q 144 -65 110 -40 q 75 -16 75 18 q 75 53 124 208 q 172 363 220 528 q 268 693 268 751 q 268 757 269 759 l 269 760 q 270 785 309 794 q 348 802 426 802 z"},"6":{"x_min":0,"x_max":556,"ha":556,"o":"m 491 257 q 491 173 394 96 q 297 20 191 20 q 128 20 88 62 q 47 105 47 178 q 47 250 94 351 q 142 452 203 531 q 264 610 320 665 q 377 720 398 720 q 418 720 438 710 q 458 699 458 688 q 458 678 424 642 q 289 499 233 418 q 344 408 418 360 q 491 311 491 257 z m 200 101 q 266 101 330 148 q 393 195 393 249 q 393 287 340 319 q 286 351 197 362 q 136 255 136 169 q 136 135 154 118 q 171 101 200 101 z"},"r":{"x_min":0,"x_max":331,"ha":331,"o":"m 91 389 l 88 464 q 88 511 110 511 q 129 511 146 486 q 164 462 164 428 q 164 395 162 378 q 249 510 327 510 q 376 510 376 486 q 376 474 365 464 q 354 454 330 441 q 277 418 240 370 q 204 323 181 263 q 158 203 144 162 q 131 121 124 98 q 117 75 108 53 q 92 13 71 13 q 54 13 44 32 q 33 52 33 70 q 33 89 50 144 q 91 270 91 389 z"},"2":{"x_min":0,"x_max":581,"ha":581,"o":"m 510 120 q 510 92 360 56 q 209 21 139 21 q 108 21 74 48 q 41 76 41 106 q 41 130 137 202 q 227 268 314 356 q 355 398 382 448 q 410 499 410 542 q 410 584 391 608 q 372 632 339 632 q 306 632 277 612 q 248 592 230 572 q 212 553 207 553 q 190 553 167 568 q 144 583 144 598 q 144 635 206 680 q 267 725 337 725 q 407 725 454 676 q 500 626 500 553 q 500 337 130 100 q 154 103 232 115 q 309 127 368 135 q 426 143 454 143 q 481 143 496 138 q 510 134 510 120 z"},"{":{"x_min":0,"x_max":421,"ha":421,"o":"m 183 338 l 178 338 q 183 320 183 294 q 183 269 156 199 q 129 129 129 77 q 129 25 158 4 q 186 -17 232 -17 q 278 -17 291 -23 q 304 -29 304 -46 q 304 -64 275 -80 q 246 -95 210 -95 q 139 -95 90 -45 q 41 5 41 68 q 41 130 74 208 q 108 286 108 335 q 108 347 93 371 q 65 394 65 421 q 65 429 68 436 q 72 444 79 444 q 86 444 116 426 q 145 408 168 408 q 190 408 206 422 q 221 437 221 459 q 221 481 198 553 q 174 625 174 694 q 174 763 228 812 q 283 862 350 862 q 417 862 456 824 q 494 787 494 735 q 494 711 478 685 q 463 659 447 659 q 433 659 433 700 q 433 742 420 761 q 408 780 366 780 q 323 780 289 748 q 255 716 256 656 q 256 596 278 530 q 300 464 300 441 q 300 401 268 370 q 236 338 183 338 z"},"9":{"x_min":0,"x_max":488,"ha":488,"o":"m 470 509 q 470 489 444 423 q 419 357 404 310 q 388 263 370 178 q 351 92 340 48 q 328 5 315 5 q 281 5 281 85 q 281 165 335 340 q 262 284 207 284 q 152 284 110 327 q 69 370 69 426 q 69 482 108 554 q 147 625 210 676 q 272 726 328 726 q 384 726 414 688 q 444 651 444 612 q 444 573 437 551 q 470 545 470 509 z m 358 524 l 367 591 q 367 613 356 628 q 346 642 327 642 q 274 642 211 558 q 148 474 148 415 q 148 390 166 375 q 183 360 202 360 q 220 360 232 363 q 244 366 256 372 q 268 379 278 385 q 287 391 298 403 q 310 415 317 422 q 324 429 336 444 q 347 459 352 465 q 371 491 381 506 q 358 509 358 524 z"}," ":{"x_min":0,"x_max":401,"ha":401,"o":""},"I":{"x_min":0,"x_max":310,"ha":310,"o":"m 188 688 q 188 705 192 712 q 197 718 212 718 q 226 718 250 687 q 273 656 273 620 q 273 585 201 292 q 194 265 182 214 q 170 164 163 137 q 156 110 148 78 q 131 19 119 19 q 107 19 88 43 q 68 67 68 87 q 68 107 128 366 q 187 626 188 688 z"},"H":{"x_min":0,"x_max":670,"ha":670,"o":"m 120 17 q 108 17 87 44 q 66 70 66 94 q 66 118 110 290 q 97 295 88 308 q 78 320 78 336 q 78 349 130 365 q 197 627 197 690 q 197 707 202 714 q 206 720 220 720 q 233 720 256 689 q 278 658 278 620 q 278 581 229 388 q 361 415 488 423 q 539 631 539 690 q 539 720 559 720 q 576 720 599 689 q 622 658 622 624 q 622 591 577 421 q 623 414 623 394 q 623 373 561 360 q 529 242 518 196 q 506 151 499 124 q 492 97 484 70 q 470 17 459 17 q 445 17 426 40 q 408 64 408 89 q 408 114 468 346 q 322 326 205 300 q 191 248 178 200 q 166 151 159 124 q 152 97 144 70 q 130 17 120 17 z"},"4":{"x_min":0,"x_max":551,"ha":551,"o":"m 441 532 q 457 532 483 508 q 509 485 509 465 q 509 375 451 182 q 393 -12 360 -12 q 349 -12 338 2 q 328 17 328 34 q 328 50 337 81 q 346 112 362 163 q 379 214 390 258 q 295 215 209 215 q 151 215 112 250 q 72 284 72 345 q 72 389 106 456 q 139 524 182 582 q 225 639 267 682 q 309 724 326 724 q 342 724 358 712 q 373 700 373 686 q 373 671 320 608 q 267 546 214 470 q 161 394 161 349 q 161 294 217 294 q 265 294 336 320 q 406 346 408 347 q 420 428 420 500 q 420 532 441 532 z"},"~":{"x_min":0,"x_max":594,"ha":594,"o":"m 80 273 q 80 321 134 376 q 187 430 239 430 q 266 430 290 413 q 313 396 326 375 q 340 354 360 336 q 379 317 399 314 q 419 317 436 333 q 453 349 462 366 q 485 412 511 412 q 537 412 537 377 q 537 329 494 280 q 452 232 402 232 q 328 232 248 360 q 220 348 198 326 q 176 305 166 287 q 139 241 115 241 q 80 241 80 273 z"},"D":{"x_min":0,"x_max":645,"ha":645,"o":"m 151 721 q 245 721 352 672 q 458 623 535 536 q 612 450 612 357 q 612 296 528 214 q 443 131 332 72 q 221 14 148 14 q 129 14 104 46 q 80 79 80 112 q 80 146 138 354 q 196 562 201 628 q 169 641 150 662 q 131 683 131 702 q 131 721 151 721 z m 520 368 q 520 430 446 502 q 372 575 274 607 q 279 589 279 564 q 279 540 262 473 q 244 406 198 249 q 179 183 167 104 q 236 113 322 164 q 407 216 464 275 q 520 334 520 368 z"},"^":{"x_min":0,"x_max":422,"ha":422,"o":"m 376 571 q 376 553 360 553 q 323 553 228 749 q 185 705 145 625 q 117 569 108 563 q 100 557 90 557 q 79 557 67 567 q 55 577 55 588 q 55 639 118 742 q 180 845 213 845 q 228 845 248 838 q 269 831 277 822 q 285 814 290 800 q 296 785 308 752 q 319 718 348 649 q 376 580 376 571 z"},"0":{"x_min":0,"x_max":500,"ha":500,"o":"m 381 488 q 381 645 335 645 q 314 645 282 604 q 249 562 218 500 q 188 438 166 358 q 145 279 145 212 q 145 97 206 97 q 235 97 276 161 q 318 225 350 319 q 381 413 381 488 z m 52 201 q 52 322 96 446 q 141 570 208 648 q 276 727 339 727 q 402 727 436 668 q 471 608 471 502 q 471 395 432 284 q 394 173 330 96 q 266 18 204 18 q 143 18 98 74 q 52 131 52 201 z"},"F":{"x_min":0,"x_max":523,"ha":523,"o":"m 197 313 l 195 313 q 193 303 176 233 q 158 163 153 142 q 148 120 144 107 q 141 94 137 78 q 133 61 130 52 q 126 42 123 33 q 117 16 111 16 q 98 16 77 44 q 56 73 56 91 q 56 109 114 341 q 171 573 173 650 q 173 665 180 674 q 190 695 240 704 q 289 713 384 713 q 480 713 534 703 q 589 693 589 675 q 589 663 572 658 q 555 653 542 650 q 529 648 508 646 q 487 643 469 642 q 451 640 422 637 q 394 634 370 632 q 346 629 305 624 q 264 619 252 618 q 253 615 253 609 q 253 562 214 393 q 276 390 348 396 q 419 402 435 402 q 473 402 473 386 q 473 355 386 334 q 300 313 197 313 z"},"`":{"x_min":0,"x_max":213,"ha":213,"o":"m 58 844 q 71 844 96 818 q 102 811 113 799 q 124 787 131 780 q 196 714 201 698 q 203 693 203 684 q 203 676 194 667 q 186 658 177 658 q 168 658 158 664 q 147 671 128 686 q 109 701 98 709 q 87 717 74 726 q 61 735 55 739 q 49 743 40 750 q 31 756 26 760 q 22 764 18 770 q 13 775 12 779 q 10 783 10 795 q 10 807 25 826 q 40 844 58 844 z"},"k":{"x_min":0,"x_max":469,"ha":469,"o":"m 473 457 q 473 448 384 363 q 351 331 324 288 q 296 244 296 208 q 296 172 318 142 q 339 111 364 96 q 390 80 412 65 q 433 50 433 40 q 433 15 394 15 q 354 15 300 60 q 245 104 232 159 q 227 169 224 178 q 156 86 126 50 q 95 15 80 15 q 65 15 47 38 q 29 62 29 78 q 29 93 62 206 q 94 320 126 479 q 159 638 159 763 q 159 779 164 785 q 168 791 183 791 q 198 791 220 762 q 242 732 242 704 q 242 615 206 455 q 170 295 120 151 q 233 312 316 412 q 398 511 418 511 q 437 511 455 492 q 473 473 473 457 z"},"u":{"x_min":0,"x_max":481,"ha":481,"o":"m 463 435 q 463 422 419 281 q 375 140 351 57 q 339 15 317 15 q 304 15 295 26 q 286 37 286 66 q 286 95 309 171 q 267 103 218 59 q 169 15 128 15 q 88 15 52 53 q 16 91 16 131 q 16 226 72 368 q 127 511 164 511 q 182 511 196 494 q 209 478 209 457 q 209 448 182 392 q 155 337 128 262 q 101 188 101 132 q 101 116 111 106 q 121 95 135 95 q 173 95 226 162 q 278 229 321 318 q 364 407 385 483 q 389 499 393 505 q 397 511 410 511 q 424 511 444 485 q 463 459 463 435 z"},"]":{"x_min":0,"x_max":450,"ha":450,"o":"m 313 673 l 261 674 q 186 674 172 675 q 128 679 128 697 q 128 723 180 738 q 231 754 295 754 q 410 754 410 711 l 410 706 q 410 552 279 3 q 268 -39 242 -57 q 216 -75 164 -75 q 111 -75 53 -50 q -5 -26 -5 3 q -5 21 15 21 q 35 21 81 15 q 127 9 154 9 q 180 9 184 31 q 312 556 312 662 q 312 669 313 673 z"},"U":{"x_min":0,"x_max":598,"ha":598,"o":"m 477 562 q 477 604 472 646 q 468 688 468 698 q 468 719 486 719 q 509 719 539 684 q 569 650 569 596 q 569 442 524 307 q 479 172 403 92 q 327 11 241 11 q 178 11 132 72 q 85 133 85 212 q 85 291 127 460 q 169 630 169 689 q 169 706 173 712 q 177 719 192 719 q 206 719 230 692 q 254 666 254 630 q 254 595 214 437 q 173 279 173 222 q 173 166 194 131 q 215 96 248 96 q 281 96 321 134 q 361 172 396 234 q 430 295 454 384 q 477 472 477 562 z"},"o":{"x_min":0,"x_max":453,"ha":453,"o":"m 333 341 q 333 375 322 406 q 311 436 290 450 q 221 431 172 344 q 122 256 122 179 q 122 102 160 83 q 232 97 282 182 q 333 266 333 341 z m 155 15 q 104 15 70 62 q 36 109 36 182 q 36 254 70 332 q 105 410 162 460 q 218 511 278 511 q 337 511 377 460 q 417 410 417 338 q 417 265 382 190 q 347 114 286 64 q 224 15 155 15 z"},"N":{"x_min":0,"x_max":677,"ha":677,"o":"m 562 680 q 564 723 582 723 q 601 723 623 700 q 645 677 645 659 q 645 577 620 426 q 594 275 552 146 q 509 17 471 17 q 458 17 442 30 q 425 43 416 62 q 386 132 239 506 q 209 390 172 244 q 136 97 124 57 q 112 17 103 17 q 90 17 72 40 q 53 62 53 86 q 53 110 118 368 q 183 625 185 689 q 185 721 202 721 q 213 721 232 702 q 252 684 261 662 q 422 244 465 150 q 530 322 552 561 q 562 671 562 680 z"},"+":{"x_min":0,"x_max":600,"ha":600,"o":"m 606 362 q 606 318 354 293 q 317 114 310 92 q 303 70 292 70 q 278 70 262 90 q 246 109 246 124 q 246 140 249 158 q 252 175 258 212 q 265 248 271 286 q 185 280 117 280 q 93 280 74 300 q 55 320 55 341 q 55 362 83 362 q 231 362 282 366 q 291 441 300 547 q 301 577 320 577 q 339 577 368 549 q 396 521 396 500 q 396 480 372 372 q 514 384 537 384 q 606 384 606 362 z"},"G":{"x_min":0,"x_max":611,"ha":611,"o":"m 461 624 q 398 624 322 555 q 245 486 191 382 q 137 279 137 190 q 137 154 160 128 q 183 103 214 103 q 262 103 326 156 q 391 208 446 291 q 390 276 363 276 q 336 276 317 290 q 298 305 298 318 q 298 334 341 344 q 384 353 449 353 q 485 353 508 322 q 530 292 530 252 q 530 211 480 61 q 430 -89 404 -89 q 379 -89 379 -60 q 379 -32 394 16 q 408 64 424 114 q 440 165 450 197 q 401 114 339 66 q 277 17 218 17 q 160 17 103 72 q 46 126 46 191 q 46 292 110 416 q 174 540 271 628 q 368 717 453 717 q 481 717 508 684 q 535 650 535 630 q 535 609 524 609 q 521 609 502 616 q 483 624 461 624 z"},"q":{"x_min":0,"x_max":474,"ha":474,"o":"m 396 -78 q 406 -78 415 -86 q 424 -95 424 -105 q 424 -121 384 -144 q 345 -168 310 -193 q 275 -218 255 -232 q 235 -245 223 -245 q 211 -245 198 -224 q 185 -202 185 -190 q 185 -178 186 -170 q 188 -163 192 -150 q 196 -137 201 -124 q 206 -110 214 -86 q 223 -62 231 -40 q 239 -19 252 18 q 266 55 278 87 q 244 54 204 34 q 164 15 129 15 q 94 15 55 57 q 16 99 16 142 q 16 186 44 250 q 71 313 112 371 q 153 429 208 470 q 264 511 310 511 q 355 511 392 474 q 429 437 429 412 q 429 386 412 386 q 400 386 374 408 q 347 431 327 431 q 283 431 226 374 q 170 318 132 248 q 94 178 94 136 q 94 120 105 109 q 116 98 132 98 q 187 98 257 160 q 327 222 352 319 q 356 334 372 334 q 388 334 410 318 q 431 303 431 288 q 431 274 414 226 q 397 179 356 70 q 314 -39 283 -127 q 356 -78 396 -78 z"},"d":{"x_min":0,"x_max":499,"ha":499,"o":"m 459 791 q 475 791 498 762 q 522 732 522 706 q 522 680 497 558 q 472 437 439 307 q 367 15 344 15 q 330 15 314 32 q 297 50 297 63 q 297 76 304 115 q 206 15 133 15 q 89 15 54 55 q 18 95 18 138 q 18 200 52 286 q 85 371 148 441 q 211 511 282 511 q 353 511 381 426 q 432 638 437 761 q 437 791 459 791 z m 349 300 q 349 354 330 391 q 312 428 286 428 q 243 428 198 375 q 153 322 126 254 q 100 185 100 135 q 100 117 113 106 q 126 95 144 95 q 183 95 250 151 q 316 207 346 283 l 349 295 z"},"1":{"x_min":0,"x_max":314,"ha":314,"o":"m 271 651 q 271 544 220 343 q 209 303 195 244 q 181 185 172 150 q 163 114 152 78 q 132 7 113 7 q 99 7 84 27 q 68 47 68 68 q 68 90 90 172 q 111 254 138 396 q 165 538 175 695 q 178 726 198 726 q 220 726 246 698 q 271 670 271 651 z"},"5":{"x_min":0,"x_max":537,"ha":537,"o":"m 444 716 q 590 716 590 685 q 590 663 418 636 q 342 624 322 620 q 303 615 276 566 q 250 518 250 496 q 250 475 271 452 q 292 428 322 406 q 353 383 384 359 q 456 302 456 248 q 456 164 376 92 q 296 20 208 20 q 139 20 84 67 q 29 114 29 160 q 29 189 45 189 q 51 189 74 166 q 142 98 192 98 q 243 98 302 145 q 362 192 362 239 q 362 282 288 333 q 258 354 228 376 q 197 399 176 430 q 154 461 154 502 q 154 542 200 616 q 246 691 276 698 q 338 716 444 716 z"}}}
